<?plantuml 1.2026.2beta3?><svg xmlns="http://www.w3.org/2000/svg" xmlns:xlink="http://www.w3.org/1999/xlink" contentStyleType="text/css" data-diagram-type="STATE" height="483px" preserveAspectRatio="none" style="width:2156px;height:483px;background:#FFFFFF;" version="1.1" viewBox="0 0 2156 483" width="2156px" zoomAndPan="magnify"><defs/><g><g class="entity" data-qualified-name="Decision" id="ent0002"><polygon fill="#F1F1F1" points="498.31,237.13,510.31,249.13,498.31,261.13,486.31,249.13,498.31,237.13" style="stroke:#181818;stroke-width:0.5;"/></g><g class="entity" data-qualified-name="len_bits_0" id="ent0003"><polygon fill="#F1F1F1" points="774.37,142.13,786.37,154.13,774.37,166.13,762.37,154.13,774.37,142.13" style="stroke:#181818;stroke-width:0.5;"/></g><rect fill="#555555" height="80" style="stroke:none;stroke-width:1;" width="8" x="1352.97" y="138.13"/><rect fill="#555555" height="80" style="stroke:none;stroke-width:1;" width="8" x="1967.5" y="138.13"/><g class="entity" data-qualified-name="LOCK_CHECK" id="ent0006"><rect fill="#F1F1F1" height="50.2656" rx="12.5" ry="12.5" style="stroke:#181818;stroke-width:0.5;" width="277.8887" x="7" y="304"/><line style="stroke:#181818;stroke-width:0.5;" x1="7" x2="284.8887" y1="330.2969" y2="330.2969"/><text fill="#000000" font-family="sans-serif" font-size="14" lengthAdjust="spacing" textLength="92.8799" x="99.5044" y="321.9951">LOCK_CHECK</text><text fill="#000000" font-family="sans-serif" font-size="12" lengthAdjust="spacing" textLength="257.8887" x="12" y="346.4355">Check if msg is locked or hash is not ready</text></g><g class="entity" data-qualified-name="SEND_OK" id="ent0007"><rect fill="#F1F1F1" height="50.2656" rx="12.5" ry="12.5" style="stroke:#181818;stroke-width:0.5;" width="286.5254" x="1536.97" y="68"/><line style="stroke:#181818;stroke-width:0.5;" x1="1536.97" x2="1823.4954" y1="94.2969" y2="94.2969"/><text fill="#000000" font-family="sans-serif" font-size="14" lengthAdjust="spacing" textLength="66.1855" x="1647.1399" y="85.9951">SEND_OK</text><text fill="#000000" font-family="sans-serif" font-size="12" lengthAdjust="spacing" textLength="266.5254" x="1541.97" y="110.4355">If LEN_BITS == 0: Set pulse for msg register</text></g><g class="start_entity" data-qualified-name=".start." data-source-line="8" id="ent0002"><ellipse cx="1971.5" cy="93.13" fill="#222222" rx="10" ry="10" style="stroke:#222222;stroke-width:1;"/></g><g class="entity" data-qualified-name="IDLE" id="ent0003"><rect fill="#F1F1F1" height="50" rx="12.5" ry="12.5" style="stroke:#181818;stroke-width:0.5;" width="51.5547" x="2070.12" y="246.13"/><line style="stroke:#181818;stroke-width:0.5;" x1="2070.12" x2="2121.6747" y1="272.4269" y2="272.4269"/><text fill="#000000" font-family="sans-serif" font-size="14" lengthAdjust="spacing" textLength="31.5547" x="2080.12" y="264.1251">IDLE</text></g><g class="entity" data-qualified-name="ADDR_READ" id="ent0005"><rect fill="#F1F1F1" height="50" rx="12.5" ry="12.5" style="stroke:#181818;stroke-width:0.5;" width="106.7959" x="2042.5" y="385.13"/><line style="stroke:#181818;stroke-width:0.5;" x1="2042.5" x2="2149.2959" y1="411.4269" y2="411.4269"/><text fill="#000000" font-family="sans-serif" font-size="14" lengthAdjust="spacing" textLength="86.7959" x="2052.5" y="403.1251">ADDR_READ</text></g><g class="entity" data-qualified-name="LEN_READ" id="ent0007"><rect fill="#F1F1F1" height="50" rx="12.5" ry="12.5" style="stroke:#181818;stroke-width:0.5;" width="93.0488" x="876.7" y="427.13"/><line style="stroke:#181818;stroke-width:0.5;" x1="876.7" x2="969.7488" y1="453.4269" y2="453.4269"/><text fill="#000000" font-family="sans-serif" font-size="14" lengthAdjust="spacing" textLength="73.0488" x="886.7" y="445.1251">LEN_READ</text></g><g class="entity" data-qualified-name="PAD_IGNORE" id="ent0011"><rect fill="#F1F1F1" height="50" rx="12.5" ry="12.5" style="stroke:#181818;stroke-width:0.5;" width="110.8428" x="442.89" y="427.13"/><line style="stroke:#181818;stroke-width:0.5;" x1="442.89" x2="553.7328" y1="453.4269" y2="453.4269"/><text fill="#000000" font-family="sans-serif" font-size="14" lengthAdjust="spacing" textLength="90.8428" x="452.89" y="445.1251">PAD_IGNORE</text></g><g class="entity" data-qualified-name="SEND_ERR" id="ent0017"><rect fill="#F1F1F1" height="50" rx="12.5" ry="12.5" style="stroke:#181818;stroke-width:0.5;" width="94.2861" x="583.73" y="334.13"/><line style="stroke:#181818;stroke-width:0.5;" x1="583.73" x2="678.0161" y1="360.4269" y2="360.4269"/><text fill="#000000" font-family="sans-serif" font-size="14" lengthAdjust="spacing" textLength="74.2861" x="593.73" y="352.1251">SEND_ERR</text></g><g class="entity" data-qualified-name="CACHE_PAYLOAD" id="ent0023"><rect fill="#F1F1F1" height="50" rx="12.5" ry="12.5" style="stroke:#181818;stroke-width:0.5;" width="141.249" x="1005.72" y="161.13"/><line style="stroke:#181818;stroke-width:0.5;" x1="1005.72" x2="1146.969" y1="187.4269" y2="187.4269"/><text fill="#000000" font-family="sans-serif" font-size="14" lengthAdjust="spacing" textLength="121.249" x="1015.72" y="179.1251">CACHE_PAYLOAD</text></g><g class="entity" data-qualified-name="SAVE_DATA" id="ent0030"><rect fill="#F1F1F1" height="50" rx="12.5" ry="12.5" style="stroke:#181818;stroke-width:0.5;" width="102.373" x="1629.05" y="153.13"/><line style="stroke:#181818;stroke-width:0.5;" x1="1629.05" x2="1731.423" y1="179.4269" y2="179.4269"/><text fill="#000000" font-family="sans-serif" font-size="14" lengthAdjust="spacing" textLength="82.373" x="1639.05" y="171.1251">SAVE_DATA</text></g><g class="entity" data-qualified-name="SEND_HASH_OK" id="ent0035"><rect fill="#F1F1F1" height="50" rx="12.5" ry="12.5" style="stroke:#181818;stroke-width:0.5;" width="132.7041" x="708.02" y="246.13"/><line style="stroke:#181818;stroke-width:0.5;" x1="708.02" x2="840.7241" y1="272.4269" y2="272.4269"/><text fill="#000000" font-family="sans-serif" font-size="14" lengthAdjust="spacing" textLength="112.7041" x="718.02" y="264.1251">SEND_HASH_OK</text></g><g class="entity" data-qualified-name="SEND_HASH" id="ent0038"><rect fill="#F1F1F1" height="50" rx="12.5" ry="12.5" style="stroke:#181818;stroke-width:0.5;" width="105.5039" x="1179.72" y="246.13"/><line style="stroke:#181818;stroke-width:0.5;" x1="1179.72" x2="1285.2239" y1="272.4269" y2="272.4269"/><text fill="#000000" font-family="sans-serif" font-size="14" lengthAdjust="spacing" textLength="85.5039" x="1189.72" y="264.1251">SEND_HASH</text></g><!--link *start* to IDLE--><g class="link" data-entity-1="ent0002" data-entity-2="ent0003" data-link-type="dependency" data-source-line="8" id="lnk4"><path d="M1978.07,101.24 C1995.47,126.54 2045.8604,199.816 2073.9704,240.696" fill="none" id="*start*-to-IDLE" style="stroke:#181818;stroke-width:1;"/><polygon fill="#181818" points="2077.37,245.64,2075.5666,235.9577,2074.537,241.52,2068.9746,240.4904,2077.37,245.64" style="stroke:#181818;stroke-width:1;"/></g><!--link IDLE to ADDR_READ--><g class="link" data-entity-1="ent0003" data-entity-2="ent0005" data-link-type="dependency" data-source-line="9" id="lnk6"><path d="M2095.89,296.46 C2095.89,321.49 2095.89,353.56 2095.89,378.64" fill="none" id="IDLE-to-ADDR_READ" style="stroke:#181818;stroke-width:1;"/><polygon fill="#181818" points="2095.89,384.64,2099.89,375.64,2095.89,379.64,2091.89,375.64,2095.89,384.64" style="stroke:#181818;stroke-width:1;"/><text fill="#000000" font-family="sans-serif" font-size="13" lengthAdjust="spacing" textLength="79.9106" x="2044.89" y="345.1969">ADDR_BIT_1</text></g><!--reverse link LEN_READ to ADDR_READ--><g class="link" data-entity-1="ent0007" data-entity-2="ent0005" data-link-type="dependency" data-source-line="10" id="lnk9"><path d="M976.0294,451.3121 C1036.0694,450.4321 1138.65,449.13 1231.47,449.13 C1231.47,449.13 1231.47,449.13 1972.5,449.13 C1996.03,449.13 2020.95,442.51 2042.12,434.72" fill="none" id="LEN_READ-backto-ADDR_READ" style="stroke:#181818;stroke-width:1;"/><polygon fill="#181818" points="970.03,451.4,979.0877,455.2677,975.0295,451.3267,978.9704,447.2685,970.03,451.4" style="stroke:#181818;stroke-width:1;"/><text fill="#000000" font-family="sans-serif" font-size="13" lengthAdjust="spacing" textLength="79.9106" x="1426.97" y="445.1969">ADDR_BIT_0</text></g><!--link LEN_READ to LEN_READ--><g class="link" data-entity-1="ent0007" data-entity-2="ent0007" data-link-type="dependency" data-source-line="11" id="lnk10"><path d="M898.04,426.85 C890.41,409.36 898.8,392.13 923.22,392.13 C947.64,392.13 958.4391,403.8605 950.8091,421.3505" fill="none" id="LEN_READ-to-LEN_READ" style="stroke:#181818;stroke-width:1;"/><polygon fill="#181818" points="948.41,426.85,955.675,420.2002,950.4093,422.2671,948.3424,417.0014,948.41,426.85" style="stroke:#181818;stroke-width:1;"/><text fill="#000000" font-family="sans-serif" font-size="13" lengthAdjust="spacing" textLength="88.6958" x="879.22" y="383.1969">9x LEN_BIT_N</text></g><!--reverse link PAD_IGNORE to LEN_READ--><g class="link" data-entity-1="ent0011" data-entity-2="ent0007" data-link-type="dependency" data-source-line="12" id="lnk13"><path d="M560.16,452.13 C644.31,452.13 797.73,452.13 876.21,452.13" fill="none" id="PAD_IGNORE-backto-LEN_READ" style="stroke:#181818;stroke-width:1;"/><polygon fill="#181818" points="554.16,452.13,563.16,456.13,559.16,452.13,563.16,448.13,554.16,452.13" style="stroke:#181818;stroke-width:1;"/><text fill="#000000" font-family="sans-serif" font-size="13" lengthAdjust="spacing" textLength="67.1455" x="597.37" y="448.1969">LEN_BIT_9</text></g><!--link PAD_IGNORE to PAD_IGNORE--><g class="link" data-entity-1="ent0011" data-entity-2="ent0011" data-link-type="dependency" data-source-line="13" id="lnk14"><path d="M475.88,426.85 C469.09,409.36 476.56,392.13 498.31,392.13 C520.06,392.13 529.7142,403.7678 522.9142,421.2578" fill="none" id="PAD_IGNORE-to-PAD_IGNORE" style="stroke:#181818;stroke-width:1;"/><polygon fill="#181818" points="520.74,426.85,527.7295,419.9112,522.5518,422.1898,520.2732,417.0122,520.74,426.85" style="stroke:#181818;stroke-width:1;"/><text fill="#000000" font-family="sans-serif" font-size="13" lengthAdjust="spacing" textLength="82.5894" x="457.31" y="383.1969">3x ignore bit</text></g><!--reverse link LOCK_CHECK to PAD_IGNORE--><g class="link" data-entity-1="ent0006" data-entity-2="ent0011" data-link-type="dependency" data-source-line="14" id="lnk16"><path d="M223.6284,356.7239 C253.5184,367.4339 283.05,377.94 314.89,389.13 C357.72,404.18 406.32,420.95 442.58,433.4" fill="none" id="LOCK_CHECK-backto-PAD_IGNORE" style="stroke:#181818;stroke-width:1;"/><polygon fill="#181818" points="217.98,354.7,225.1033,361.5014,222.687,356.3866,227.8018,353.9703,217.98,354.7" style="stroke:#181818;stroke-width:1;"/><text fill="#000000" font-family="sans-serif" font-size="13" lengthAdjust="spacing" textLength="96.4844" x="315.89" y="385.1969">4th ignored bit</text></g><!--link LOCK_CHECK to SEND_ERR--><g class="link" data-entity-1="ent0006" data-entity-2="ent0017" data-link-type="dependency" data-source-line="16" id="lnk18"><path d="M285.33,337.73 C385.67,343.96 509.2615,351.638 577.3515,355.868" fill="none" id="LOCK_CHECK-to-SEND_ERR" style="stroke:#181818;stroke-width:1;"/><polygon fill="#181818" points="583.34,356.24,574.6053,351.6897,578.3496,355.93,574.1093,359.6743,583.34,356.24" style="stroke:#181818;stroke-width:1;"/><text fill="#000000" font-family="sans-serif" font-size="13" lengthAdjust="spacing" textLength="42.4912" x="342.89" y="336.1969">locked</text></g><!--link SEND_ERR to SEND_ERR--><g class="link" data-entity-1="ent0017" data-entity-2="ent0017" data-link-type="dependency" data-source-line="17" id="lnk19"><path d="M608.45,333.85 C601.65,316.36 609.13,299.13 630.87,299.13 C652.62,299.13 662.2742,310.7678 655.4742,328.2578" fill="none" id="SEND_ERR-to-SEND_ERR" style="stroke:#181818;stroke-width:1;"/><polygon fill="#181818" points="653.3,333.85,660.2895,326.9112,655.1118,329.1898,652.8332,324.0122,653.3,333.85" style="stroke:#181818;stroke-width:1;"/><text fill="#000000" font-family="sans-serif" font-size="13" lengthAdjust="spacing" textLength="69.2974" x="596.37" y="290.1969">7x bit sent</text></g><!--link SEND_ERR to IDLE--><g class="link" data-entity-1="ent0017" data-entity-2="ent0003" data-link-type="dependency" data-source-line="18" id="lnk20"><path d="M678.39,359.13 C735.73,359.13 836.15,359.13 922.22,359.13 C922.22,359.13 922.22,359.13 1972.5,359.13 C2015.68,359.13 2050.1821,327.1652 2072.0021,301.1752" fill="none" id="SEND_ERR-to-IDLE" style="stroke:#181818;stroke-width:1;"/><polygon fill="#181818" points="2075.86,296.58,2067.0096,300.9009,2072.645,300.4094,2073.1366,306.0448,2075.86,296.58" style="stroke:#181818;stroke-width:1;"/><text fill="#000000" font-family="sans-serif" font-size="13" lengthAdjust="spacing" textLength="76.7813" x="1318.97" y="355.1969">last bit sent</text></g><!--link LOCK_CHECK to Decision--><g class="link" data-entity-1="ent0006" data-entity-2="ent0002" data-link-type="dependency" data-source-line="19" id="lnk21"><path d="M258.77,303.6 C345.28,283.84 449.7704,259.985 482.1504,252.595" fill="none" id="LOCK_CHECK-to-Decision" style="stroke:#181818;stroke-width:1;"/><polygon fill="#181818" points="488,251.26,478.3356,249.3628,483.1253,252.3725,480.1156,257.1623,488,251.26" style="stroke:#181818;stroke-width:1;"/></g><!--link Decision to len_bits_0--><g class="link" data-entity-1="ent0002" data-entity-2="ent0003" data-link-type="dependency" data-source-line="20" id="lnk22"><path d="M507.81,246.18 C548.56,232.06 717.9008,173.3547 759.0208,159.1047" fill="none" id="Decision-to-len_bits_0" style="stroke:#181818;stroke-width:1;"/><polygon fill="#181818" points="764.69,157.14,754.8764,156.3075,759.9656,158.7772,757.4959,163.8665,764.69,157.14" style="stroke:#181818;stroke-width:1;"/><text fill="#000000" font-family="sans-serif" font-size="13" lengthAdjust="spacing" textLength="75.7021" x="593.37" y="184.1969">[MSG Type]</text></g><!--link len_bits_0 to CACHE_PAYLOAD--><g class="link" data-entity-1="ent0003" data-entity-2="ent0023" data-link-type="dependency" data-source-line="21" id="lnk24"><path d="M785.7,155.23 C819.85,158.87 925.2339,170.113 999.5039,178.043" fill="none" id="len_bits_0-to-CACHE_PAYLOAD" style="stroke:#181818;stroke-width:1;"/><polygon fill="#181818" points="1005.47,178.68,996.9455,173.7471,1000.4983,178.1492,996.0962,181.7019,1005.47,178.68" style="stroke:#181818;stroke-width:1;"/><text fill="#000000" font-family="sans-serif" font-size="13" lengthAdjust="spacing" textLength="103.4097" x="871.72" y="161.1969">[LEN_BITS != 0]</text></g><!--link len_bits_0 to SEND_OK--><g class="link" data-entity-1="ent0003" data-entity-2="ent0007" data-link-type="dependency" data-source-line="22" id="lnk25"><path d="M784.03,151.31 C814.18,141.65 917.57,109.91 1005.72,99.13 C1187.95,76.85 1393.9848,79.3993 1530.7248,84.8893" fill="none" id="len_bits_0-to-SEND_OK" style="stroke:#181818;stroke-width:1;"/><polygon fill="#181818" points="1536.72,85.13,1527.8877,80.7722,1531.724,84.9294,1527.5668,88.7657,1536.72,85.13" style="stroke:#181818;stroke-width:1;"/><text fill="#000000" font-family="sans-serif" font-size="13" lengthAdjust="spacing" textLength="109.0908" x="1177.97" y="78.1969">[LEN_BITS == 0]</text></g><!--link SEND_OK to SEND_OK--><g class="link" data-entity-1="ent0007" data-entity-2="ent0007" data-link-type="dependency" data-source-line="24" id="lnk26"><path d="M1644.32,67.8 C1633.44,50.26 1645.41,33 1680.23,33 C1715.06,33 1730.1927,45.1613 1719.3127,62.7013" fill="none" id="SEND_OK-to-SEND_OK" style="stroke:#181818;stroke-width:1;"/><polygon fill="#181818" points="1716.15,67.8,1724.2933,62.2604,1718.7856,63.5511,1717.4949,58.0434,1716.15,67.8" style="stroke:#181818;stroke-width:1;"/><text fill="#000000" font-family="sans-serif" font-size="13" lengthAdjust="spacing" textLength="69.2974" x="1645.73" y="24.0669">7x bit sent</text></g><!--link SEND_OK to Join--><g class="link" data-entity-1="ent0007" data-entity-2="ent0005" data-link-type="dependency" data-source-line="25" id="lnk27"><path d="M1823.73,117.48 C1859.72,126.12 1897.72,137.46 1931.5,152.13 C1945.83,158.35 1955.9738,166.0493 1962.4638,171.4093" fill="none" id="SEND_OK-to-Join" style="stroke:#181818;stroke-width:1;"/><polygon fill="#181818" points="1967.09,175.23,1962.6978,166.4147,1963.2348,172.0461,1957.6035,172.583,1967.09,175.23" style="stroke:#181818;stroke-width:1;"/><text fill="#000000" font-family="sans-serif" font-size="13" lengthAdjust="spacing" textLength="76.7813" x="1854.5" y="123.1969">last bit sent</text></g><!--link CACHE_PAYLOAD to CACHE_PAYLOAD--><g class="link" data-entity-1="ent0023" data-entity-2="ent0023" data-link-type="dependency" data-source-line="26" id="lnk28"><path d="M1050.44,160.85 C1042.59,143.36 1051.22,126.13 1076.35,126.13 C1101.47,126.13 1112.5569,137.8861 1104.7069,155.3761" fill="none" id="CACHE_PAYLOAD-to-CACHE_PAYLOAD" style="stroke:#181818;stroke-width:1;"/><polygon fill="#181818" points="1102.25,160.85,1109.5846,154.277,1104.2974,156.2884,1102.286,151.0012,1102.25,160.85" style="stroke:#181818;stroke-width:1;"/><text fill="#000000" font-family="sans-serif" font-size="13" lengthAdjust="spacing" textLength="170.187" x="991.35" y="117.1969">(LEN_BITS - 1)x cache bits</text></g><!--link CACHE_PAYLOAD to Fork--><g class="link" data-entity-1="ent0023" data-entity-2="ent0004" data-link-type="dependency" data-source-line="27" id="lnk29"><path d="M1147.3,184.12 C1221.77,181.98 1325.7525,179.0033 1346.5225,178.4033" fill="none" id="CACHE_PAYLOAD-to-Fork" style="stroke:#181818;stroke-width:1;"/><polygon fill="#181818" points="1352.52,178.23,1343.4082,174.4915,1347.5221,178.3744,1343.6393,182.4882,1352.52,178.23" style="stroke:#181818;stroke-width:1;"/></g><!--link Fork to SAVE_DATA--><g class="link" data-entity-1="ent0004" data-entity-2="ent0030" data-link-type="dependency" data-source-line="28" id="lnk31"><path d="M1361.15,178.13 C1385.62,178.13 1539.29,178.13 1622.68,178.13" fill="none" id="Fork-to-SAVE_DATA" style="stroke:#181818;stroke-width:1;"/><polygon fill="#181818" points="1628.68,178.13,1619.68,174.13,1623.68,178.13,1619.68,182.13,1628.68,178.13" style="stroke:#181818;stroke-width:1;"/></g><!--link Fork to SEND_OK--><g class="link" data-entity-1="ent0004" data-entity-2="ent0007" data-link-type="dependency" data-source-line="29" id="lnk32"><path d="M1361.31,176.67 C1371.09,172.42 1400.59,159.9 1425.97,152.13 C1467.2,139.51 1507.0597,129.432 1548.1697,120.072" fill="none" id="Fork-to-SEND_OK" style="stroke:#181818;stroke-width:1;"/><polygon fill="#181818" points="1554.02,118.74,1544.3566,116.8378,1549.1448,119.85,1546.1326,124.6382,1554.02,118.74" style="stroke:#181818;stroke-width:1;"/></g><!--link SAVE_DATA to Join--><g class="link" data-entity-1="ent0030" data-entity-2="ent0005" data-link-type="dependency" data-source-line="30" id="lnk33"><path d="M1731.62,178.13 C1807.37,178.13 1938.22,178.13 1961.19,178.13" fill="none" id="SAVE_DATA-to-Join" style="stroke:#181818;stroke-width:1;"/><polygon fill="#181818" points="1967.19,178.13,1958.19,174.13,1962.19,178.13,1958.19,182.13,1967.19,178.13" style="stroke:#181818;stroke-width:1;"/></g><!--link Join to IDLE--><g class="link" data-entity-1="ent0005" data-entity-2="ent0003" data-link-type="dependency" data-source-line="31" id="lnk34"><path d="M1975.77,180.62 C1988.96,190.64 2034.2129,225.0196 2065.0829,248.4796" fill="none" id="Join-to-IDLE" style="stroke:#181818;stroke-width:1;"/><polygon fill="#181818" points="2069.86,252.11,2065.1147,243.4797,2065.8791,249.0847,2060.2742,249.8491,2069.86,252.11" style="stroke:#181818;stroke-width:1;"/></g><!--link Decision to SEND_HASH_OK--><g class="link" data-entity-1="ent0002" data-entity-2="ent0035" data-link-type="dependency" data-source-line="32" id="lnk36"><path d="M510.05,249.99 C542.41,252.59 634.8692,260.0099 701.7692,265.3799" fill="none" id="Decision-to-SEND_HASH_OK" style="stroke:#181818;stroke-width:1;"/><polygon fill="#181818" points="707.75,265.86,699.0989,261.1527,702.766,265.4599,698.4588,269.1271,707.75,265.86" style="stroke:#181818;stroke-width:1;"/><text fill="#000000" font-family="sans-serif" font-size="13" lengthAdjust="spacing" textLength="46.8394" x="607.87" y="253.1969">[HASH]</text></g><!--link SEND_HASH_OK to SEND_HASH_OK--><g class="link" data-entity-1="ent0035" data-entity-2="ent0035" data-link-type="dependency" data-source-line="33" id="lnk37"><path d="M750.09,245.85 C742.73,228.36 750.83,211.13 774.37,211.13 C797.91,211.13 808.3245,222.8286 800.9745,240.3186" fill="none" id="SEND_HASH_OK-to-SEND_HASH_OK" style="stroke:#181818;stroke-width:1;"/><polygon fill="#181818" points="798.65,245.85,805.8244,239.1026,800.5871,241.2405,798.4492,236.0032,798.65,245.85" style="stroke:#181818;stroke-width:1;"/><text fill="#000000" font-family="sans-serif" font-size="13" lengthAdjust="spacing" textLength="69.2974" x="739.87" y="202.1969">7x bit sent</text></g><!--link SEND_HASH_OK to SEND_HASH--><g class="link" data-entity-1="ent0035" data-entity-2="ent0038" data-link-type="dependency" data-source-line="34" id="lnk39"><path d="M841.2,271.13 C932.6,271.13 1090.09,271.13 1173.47,271.13" fill="none" id="SEND_HASH_OK-to-SEND_HASH" style="stroke:#181818;stroke-width:1;"/><polygon fill="#181818" points="1179.47,271.13,1170.47,267.13,1174.47,271.13,1170.47,275.13,1179.47,271.13" style="stroke:#181818;stroke-width:1;"/><text fill="#000000" font-family="sans-serif" font-size="13" lengthAdjust="spacing" textLength="76.7813" x="885.22" y="267.1969">last bit sent</text></g><!--link SEND_HASH to SEND_HASH--><g class="link" data-entity-1="ent0038" data-entity-2="ent0038" data-link-type="dependency" data-source-line="35" id="lnk40"><path d="M1211.41,245.85 C1205.02,228.36 1212.04,211.13 1232.47,211.13 C1252.9,211.13 1261.979,222.7244 1255.589,240.2144" fill="none" id="SEND_HASH-to-SEND_HASH" style="stroke:#181818;stroke-width:1;"/><polygon fill="#181818" points="1253.53,245.85,1260.3756,238.7692,1255.2458,241.1536,1252.8614,236.0239,1253.53,245.85" style="stroke:#181818;stroke-width:1;"/><text fill="#000000" font-family="sans-serif" font-size="13" lengthAdjust="spacing" textLength="85.8394" x="1189.97" y="202.1969">255x bit sent</text></g><!--link SEND_HASH to IDLE--><g class="link" data-entity-1="ent0038" data-entity-2="ent0003" data-link-type="dependency" data-source-line="36" id="lnk41"><path d="M1285.53,271.13 C1332.55,271.13 1403.64,271.13 1465.47,271.13 C1465.47,271.13 1465.47,271.13 1972.5,271.13 C2006.28,271.13 2039.32,271.13 2064.05,271.13" fill="none" id="SEND_HASH-to-IDLE" style="stroke:#181818;stroke-width:1;"/><polygon fill="#181818" points="2070.05,271.13,2061.05,267.13,2065.05,271.13,2061.05,275.13,2070.05,271.13" style="stroke:#181818;stroke-width:1;"/><text fill="#000000" font-family="sans-serif" font-size="13" lengthAdjust="spacing" textLength="76.7813" x="1642.23" y="267.1969">last bit sent</text></g><?plantuml-src TPFHRgCm44NV_HNJjtObfBJTgchKHdA1RR99amgYbQgeiYXnWZSiZh0haRzVso4E1lg2yPqpu-4opkb6WkHGicqcOSrAcah62oHa8Ya4D6L2RU7nCSquI-beL4ToMf1F9WKPD6Dry1SlTqhUgCKc_EPCb_ch5WskVdo0vurW4in2f1_WcHQKX8CW8b680nWUtvydItADphANgwOLE0ld7Mw0hEgvo4DbTXgQDw2llSBUS40cB_D552hmH3sWXkorgTiAsBRW9GLbWqEQYhE5FoN-EFIdYlqfinfU6ze9-XbDTy0sy4ziWGd8URfJ72yXIqIcbO9BA6coFZGJTKDnE0z864MgoZ4BMQKLlg_qmI1e8Lt6MA_I4o7FHEkOqnGWEmvQRKp045QlyGii3tlwWHgwndoi2f4t_3vRcD-mgksDuU891XtSDBUOEk2J0S-HoGQSs11YAc7_bGiAQkQCaINTCY5fQTFSuXq_Qi9CQTiEznFwFkhIzkF1zLK5QP9cPZ14JxA-7SXS4TCJ_XEI02znGpesX6p8jePCV_RUEF_3P8rnFAxjqw-rQoUr1-iOqSjsB3b7sjpDtLtr7TStRFy1?></g></svg>