<?plantuml 1.2026.2beta3?><svg xmlns="http://www.w3.org/2000/svg" xmlns:xlink="http://www.w3.org/1999/xlink" contentStyleType="text/css" data-diagram-type="SEQUENCE" height="846px" preserveAspectRatio="none" style="width:684px;height:846px;background:#FFFFFF;" version="1.1" viewBox="0 0 684 846" width="684px" zoomAndPan="magnify"><defs/><g><g><title>u_hasher</title><rect fill="#FFFFFF" height="241.9297" style="stroke:#181818;stroke-width:1;" width="10" x="474.8413" y="344.4922"/></g><rect fill="none" height="75.3984" style="stroke:#000000;stroke-width:1.5;" width="508.772" x="20" y="98.2969"/><rect fill="none" height="398.7266" style="stroke:#000000;stroke-width:1.5;" width="668.373" x="10" y="187.6953"/><rect fill="none" height="46.2656" style="stroke:#000000;stroke-width:1.5;" width="201.3364" x="20" y="240.9609"/><rect fill="none" height="59.2656" style="stroke:#000000;stroke-width:1.5;" width="237.4624" x="430.9106" y="388.625"/><rect fill="none" height="46.2656" style="stroke:#000000;stroke-width:1.5;" width="384.8667" x="143.9053" y="533.1563"/><rect fill="none" height="119.3359" style="stroke:#000000;stroke-width:1.5;" width="508.772" x="20" y="629.5547"/><g class="participant-lifeline" data-entity-uid="part1" data-qualified-name="user" id="part1-lifeline"><g><title>user</title><rect fill="#000000" fill-opacity="0.00000" height="684.5938" width="8" x="44.2681" y="81.2969"/><line style="stroke:#181818;stroke-width:0.5;stroke-dasharray:5,5;" x1="48" x2="48" y1="81.2969" y2="765.8906"/></g></g><g class="participant-lifeline" data-entity-uid="part2" data-qualified-name="u_spi" id="part2-lifeline"><g><title>u_spi</title><rect fill="#000000" fill-opacity="0.00000" height="684.5938" width="8" x="174.877" y="81.2969"/><line style="stroke:#181818;stroke-width:0.5;stroke-dasharray:5,5;" x1="177.9053" x2="177.9053" y1="81.2969" y2="765.8906"/></g></g><g class="participant-lifeline" data-entity-uid="part3" data-qualified-name="u_reg_msg" id="part3-lifeline"><g><title>u_reg_msg</title><rect fill="#000000" fill-opacity="0.00000" height="684.5938" width="8" x="381.937" y="81.2969"/><line style="stroke:#181818;stroke-width:0.5;stroke-dasharray:5,5;" x1="384.9634" x2="384.9634" y1="81.2969" y2="765.8906"/></g></g><g class="participant-lifeline" data-entity-uid="part4" data-qualified-name="u_hasher" id="part4-lifeline"><g><title>u_hasher</title><rect fill="#000000" fill-opacity="0.00000" height="684.5938" width="8" x="475.8413" y="81.2969"/><line style="stroke:#181818;stroke-width:0.5;stroke-dasharray:5,5;" x1="478.9106" x2="478.9106" y1="81.2969" y2="765.8906"/></g></g><g class="participant participant-head" data-entity-uid="part1" data-qualified-name="user" id="part1-head"><text fill="#000000" font-family="sans-serif" font-size="14" lengthAdjust="spacing" textLength="30.5361" x="30" y="77.9951">user</text><ellipse cx="48.2681" cy="13.5" fill="#E2E2F0" rx="8" ry="8" style="stroke:#181818;stroke-width:0.5;"/><path d="M48.2681,21.5 L48.2681,48.5 M35.2681,29.5 L61.2681,29.5 M48.2681,48.5 L35.2681,63.5 M48.2681,48.5 L61.2681,63.5" fill="none" style="stroke:#181818;stroke-width:0.5;"/></g><g class="participant participant-tail" data-entity-uid="part1" data-qualified-name="user" id="part1-tail"><text fill="#000000" font-family="sans-serif" font-size="14" lengthAdjust="spacing" textLength="30.5361" x="30" y="777.8857">user</text><ellipse cx="48.2681" cy="789.6875" fill="#E2E2F0" rx="8" ry="8" style="stroke:#181818;stroke-width:0.5;"/><path d="M48.2681,797.6875 L48.2681,824.6875 M35.2681,805.6875 L61.2681,805.6875 M48.2681,824.6875 L35.2681,839.6875 M48.2681,824.6875 L61.2681,839.6875" fill="none" style="stroke:#181818;stroke-width:0.5;"/></g><g class="participant participant-head" data-entity-uid="part2" data-qualified-name="u_spi" id="part2-head"><rect fill="#E2E2F0" height="30.2969" rx="2.5" ry="2.5" style="stroke:#181818;stroke-width:0.5;" width="49.9434" x="153.9053" y="50"/><text fill="#000000" font-family="sans-serif" font-size="14" lengthAdjust="spacing" textLength="35.9434" x="160.9053" y="69.9951">u_spi</text></g><g class="participant participant-tail" data-entity-uid="part2" data-qualified-name="u_spi" id="part2-tail"><rect fill="#E2E2F0" height="30.2969" rx="2.5" ry="2.5" style="stroke:#181818;stroke-width:0.5;" width="49.9434" x="153.9053" y="764.8906"/><text fill="#000000" font-family="sans-serif" font-size="14" lengthAdjust="spacing" textLength="35.9434" x="160.9053" y="784.8857">u_spi</text></g><g class="participant participant-head" data-entity-uid="part3" data-qualified-name="u_reg_msg" id="part3-head"><rect fill="#E2E2F0" height="30.2969" rx="2.5" ry="2.5" style="stroke:#181818;stroke-width:0.5;" width="89.9473" x="340.9634" y="50"/><text fill="#000000" font-family="sans-serif" font-size="14" lengthAdjust="spacing" textLength="75.9473" x="347.9634" y="69.9951">u_reg_msg</text></g><g class="participant participant-tail" data-entity-uid="part3" data-qualified-name="u_reg_msg" id="part3-tail"><rect fill="#E2E2F0" height="30.2969" rx="2.5" ry="2.5" style="stroke:#181818;stroke-width:0.5;" width="89.9473" x="340.9634" y="764.8906"/><text fill="#000000" font-family="sans-serif" font-size="14" lengthAdjust="spacing" textLength="75.9473" x="347.9634" y="784.8857">u_reg_msg</text></g><g class="participant participant-head" data-entity-uid="part4" data-qualified-name="u_hasher" id="part4-head"><rect fill="#E2E2F0" height="30.2969" rx="2.5" ry="2.5" style="stroke:#181818;stroke-width:0.5;" width="77.8613" x="440.9106" y="50"/><text fill="#000000" font-family="sans-serif" font-size="14" lengthAdjust="spacing" textLength="63.8613" x="447.9106" y="69.9951">u_hasher</text></g><g class="participant participant-tail" data-entity-uid="part4" data-qualified-name="u_hasher" id="part4-tail"><rect fill="#E2E2F0" height="30.2969" rx="2.5" ry="2.5" style="stroke:#181818;stroke-width:0.5;" width="77.8613" x="440.9106" y="764.8906"/><text fill="#000000" font-family="sans-serif" font-size="14" lengthAdjust="spacing" textLength="63.8613" x="447.9106" y="784.8857">u_hasher</text></g><g><title>u_hasher</title><rect fill="#FFFFFF" height="241.9297" style="stroke:#181818;stroke-width:1;" width="10" x="474.8413" y="344.4922"/></g><path d="M20,98.2969 L89.4893,98.2969 L89.4893,105.4297 L79.4893,115.4297 L20,115.4297 L20,98.2969" fill="#EEEEEE" style="stroke:#000000;stroke-width:1.5;"/><rect fill="none" height="75.3984" style="stroke:#000000;stroke-width:1.5;" width="508.772" x="20" y="98.2969"/><text fill="#000000" font-family="sans-serif" font-size="13" font-weight="bold" lengthAdjust="spacing" textLength="24.4893" x="35" y="111.3638">par</text><g class="message" data-entity-1="part1" data-entity-2="part2" id="msg1"><polygon fill="#181818" points="166.877,132.5625,176.877,136.5625,166.877,140.5625,170.877,136.5625" style="stroke:#181818;stroke-width:1;"/><line style="stroke:#181818;stroke-width:1;" x1="48.2681" x2="172.877" y1="136.5625" y2="136.5625"/><text fill="#000000" font-family="sans-serif" font-size="13" lengthAdjust="spacing" textLength="70.9604" x="55.2681" y="131.4966">rst_n pulse</text></g><g class="message" data-entity-1="part1" data-entity-2="part4" id="msg2"><polygon fill="#181818" points="467.8413,161.6953,477.8413,165.6953,467.8413,169.6953,471.8413,165.6953" style="stroke:#181818;stroke-width:1;"/><line style="stroke:#181818;stroke-width:1;" x1="48.2681" x2="473.8413" y1="165.6953" y2="165.6953"/><text fill="#000000" font-family="sans-serif" font-size="13" lengthAdjust="spacing" textLength="70.9604" x="55.2681" y="160.6294">rst_n pulse</text></g><path d="M10,187.6953 L86.624,187.6953 L86.624,194.8281 L76.624,204.8281 L10,204.8281 L10,187.6953" fill="#EEEEEE" style="stroke:#000000;stroke-width:1.5;"/><rect fill="none" height="398.7266" style="stroke:#000000;stroke-width:1.5;" width="668.373" x="10" y="187.6953"/><text fill="#000000" font-family="sans-serif" font-size="13" font-weight="bold" lengthAdjust="spacing" textLength="31.624" x="25" y="200.7622">loop</text><text fill="#000000" font-family="sans-serif" font-size="11" font-weight="bold" lengthAdjust="spacing" textLength="102.7759" x="101.624" y="199.9058">[has bit to send]</text><g class="message" data-entity-1="part1" data-entity-2="part2" id="msg3"><polygon fill="#181818" points="166.877,221.9609,176.877,225.9609,166.877,229.9609,170.877,225.9609" style="stroke:#181818;stroke-width:1;"/><line style="stroke:#181818;stroke-width:1;" x1="48.2681" x2="172.877" y1="225.9609" y2="225.9609"/><text fill="#000000" font-family="sans-serif" font-size="13" lengthAdjust="spacing" textLength="106.6089" x="55.2681" y="220.895">send msg chunk</text></g><path d="M20,240.9609 L89.4512,240.9609 L89.4512,248.0938 L79.4512,258.0938 L20,258.0938 L20,240.9609" fill="#EEEEEE" style="stroke:#000000;stroke-width:1.5;"/><rect fill="none" height="46.2656" style="stroke:#000000;stroke-width:1.5;" width="201.3364" x="20" y="240.9609"/><text fill="#000000" font-family="sans-serif" font-size="13" font-weight="bold" lengthAdjust="spacing" textLength="24.4512" x="35" y="254.0278">opt</text><text fill="#000000" font-family="sans-serif" font-size="11" font-weight="bold" lengthAdjust="spacing" textLength="111.8853" x="104.4512" y="253.1714">[is msg_lock high]</text><g class="message" data-entity-1="part2" data-entity-2="part1" id="msg4"><polygon fill="#181818" points="59.2681,275.2266,49.2681,279.2266,59.2681,283.2266,55.2681,279.2266" style="stroke:#181818;stroke-width:1;"/><line style="stroke:#181818;stroke-width:1;" x1="53.2681" x2="177.877" y1="279.2266" y2="279.2266"/><text fill="#000000" font-family="sans-serif" font-size="13" lengthAdjust="spacing" textLength="37.1973" x="65.2681" y="274.1606">reject</text></g><g class="message" data-entity-1="part2" data-entity-2="part3" id="msg5"><polygon fill="#181818" points="373.937,311.3594,383.937,315.3594,373.937,319.3594,377.937,315.3594" style="stroke:#181818;stroke-width:1;"/><line style="stroke:#181818;stroke-width:1;" x1="178.877" x2="379.937" y1="315.3594" y2="315.3594"/><text fill="#000000" font-family="sans-serif" font-size="13" lengthAdjust="spacing" textLength="183.0601" x="185.877" y="310.2935">save msg chunk with length</text></g><g class="message" data-entity-1="part2" data-entity-2="part4" id="msg6"><polygon fill="#181818" points="462.8413,340.4922,472.8413,344.4922,462.8413,348.4922,466.8413,344.4922" style="stroke:#181818;stroke-width:1;"/><line style="stroke:#181818;stroke-width:1;" x1="178.877" x2="468.8413" y1="344.4922" y2="344.4922"/><text fill="#000000" font-family="sans-serif" font-size="13" lengthAdjust="spacing" textLength="83.1479" x="185.877" y="339.4263">chunk_ready</text></g><g class="message" data-entity-1="part4" data-entity-2="part2" id="msg7"><polygon fill="#181818" points="189.877,369.625,179.877,373.625,189.877,377.625,185.877,373.625" style="stroke:#181818;stroke-width:1;"/><line style="stroke:#181818;stroke-width:1;" x1="183.877" x2="473.8413" y1="373.625" y2="373.625"/><text fill="#000000" font-family="sans-serif" font-size="13" lengthAdjust="spacing" textLength="116.9048" x="195.877" y="368.5591">set msg_lock high</text></g><path d="M430.9106,388.625 L500.3618,388.625 L500.3618,395.7578 L490.3618,405.7578 L430.9106,405.7578 L430.9106,388.625" fill="#EEEEEE" style="stroke:#000000;stroke-width:1.5;"/><rect fill="none" height="59.2656" style="stroke:#000000;stroke-width:1.5;" width="237.4624" x="430.9106" y="388.625"/><text fill="#000000" font-family="sans-serif" font-size="13" font-weight="bold" lengthAdjust="spacing" textLength="24.4512" x="445.9106" y="401.6919">opt</text><text fill="#000000" font-family="sans-serif" font-size="11" font-weight="bold" lengthAdjust="spacing" textLength="148.0112" x="515.3618" y="400.8354">[is msg length !== 512]</text><g class="message" data-entity-1="part4" data-entity-2="part4" id="msg8"><line style="stroke:#181818;stroke-width:1;" x1="484.8413" x2="526.8413" y1="426.8906" y2="426.8906"/><line style="stroke:#181818;stroke-width:1;" x1="526.8413" x2="526.8413" y1="426.8906" y2="439.8906"/><line style="stroke:#181818;stroke-width:1;" x1="485.8413" x2="526.8413" y1="439.8906" y2="439.8906"/><polygon fill="#181818" points="495.8413,435.8906,485.8413,439.8906,495.8413,443.8906,491.8413,439.8906" style="stroke:#181818;stroke-width:1;"/><text fill="#000000" font-family="sans-serif" font-size="13" lengthAdjust="spacing" textLength="81.4277" x="491.8413" y="421.8247">add padding</text></g><g class="message" data-entity-1="part4" data-entity-2="part4" id="msg9"><line style="stroke:#181818;stroke-width:1;" x1="484.8413" x2="526.8413" y1="476.0234" y2="476.0234"/><line style="stroke:#181818;stroke-width:1;" x1="526.8413" x2="526.8413" y1="476.0234" y2="489.0234"/><line style="stroke:#181818;stroke-width:1;" x1="485.8413" x2="526.8413" y1="489.0234" y2="489.0234"/><polygon fill="#181818" points="495.8413,485.0234,485.8413,489.0234,495.8413,493.0234,491.8413,489.0234" style="stroke:#181818;stroke-width:1;"/><text fill="#000000" font-family="sans-serif" font-size="13" lengthAdjust="spacing" textLength="146.8975" x="491.8413" y="470.9575">do hashing with chunk</text></g><g class="message" data-entity-1="part4" data-entity-2="part2" id="msg10"><polygon fill="#181818" points="189.877,514.1563,179.877,518.1563,189.877,522.1563,185.877,518.1563" style="stroke:#181818;stroke-width:1;"/><line style="stroke:#181818;stroke-width:1;" x1="183.877" x2="473.8413" y1="518.1563" y2="518.1563"/><text fill="#000000" font-family="sans-serif" font-size="13" lengthAdjust="spacing" textLength="110.7603" x="195.877" y="513.0903">set msg_lock low</text></g><path d="M143.9053,533.1563 L213.3564,533.1563 L213.3564,540.2891 L203.3564,550.2891 L143.9053,550.2891 L143.9053,533.1563" fill="#EEEEEE" style="stroke:#000000;stroke-width:1.5;"/><rect fill="none" height="46.2656" style="stroke:#000000;stroke-width:1.5;" width="384.8667" x="143.9053" y="533.1563"/><text fill="#000000" font-family="sans-serif" font-size="13" font-weight="bold" lengthAdjust="spacing" textLength="24.4512" x="158.9053" y="546.2231">opt</text><text fill="#000000" font-family="sans-serif" font-size="11" font-weight="bold" lengthAdjust="spacing" textLength="148.0112" x="228.3564" y="545.3667">[is msg length !== 512]</text><g class="message" data-entity-1="part4" data-entity-2="part2" id="msg11"><polygon fill="#181818" points="189.877,567.4219,179.877,571.4219,189.877,575.4219,185.877,571.4219" style="stroke:#181818;stroke-width:1;"/><line style="stroke:#181818;stroke-width:1;" x1="183.877" x2="473.8413" y1="571.4219" y2="571.4219"/><text fill="#000000" font-family="sans-serif" font-size="13" lengthAdjust="spacing" textLength="148.6304" x="195.877" y="566.356">set hash_ready to high</text></g><g class="message" data-entity-1="part1" data-entity-2="part2" id="msg12"><polygon fill="#181818" points="166.877,610.5547,176.877,614.5547,166.877,618.5547,170.877,614.5547" style="stroke:#181818;stroke-width:1;"/><line style="stroke:#181818;stroke-width:1;" x1="48.2681" x2="172.877" y1="614.5547" y2="614.5547"/><text fill="#000000" font-family="sans-serif" font-size="13" lengthAdjust="spacing" textLength="64.9111" x="55.2681" y="609.4888">read hash</text></g><path d="M20,629.5547 L84.4429,629.5547 L84.4429,636.6875 L74.4429,646.6875 L20,646.6875 L20,629.5547" fill="#EEEEEE" style="stroke:#000000;stroke-width:1.5;"/><rect fill="none" height="119.3359" style="stroke:#000000;stroke-width:1.5;" width="508.772" x="20" y="629.5547"/><text fill="#000000" font-family="sans-serif" font-size="13" font-weight="bold" lengthAdjust="spacing" textLength="19.4429" x="35" y="642.6216">alt</text><text fill="#000000" font-family="sans-serif" font-size="11" font-weight="bold" lengthAdjust="spacing" textLength="120.0063" x="99.4429" y="641.7651">[is hash_ready low]</text><g class="message" data-entity-1="part2" data-entity-2="part1" id="msg13"><polygon fill="#181818" points="59.2681,663.8203,49.2681,667.8203,59.2681,671.8203,55.2681,667.8203" style="stroke:#181818;stroke-width:1;"/><line style="stroke:#181818;stroke-width:1;" x1="53.2681" x2="177.877" y1="667.8203" y2="667.8203"/><text fill="#000000" font-family="sans-serif" font-size="13" lengthAdjust="spacing" textLength="37.1973" x="65.2681" y="662.7544">reject</text></g><line style="stroke:#000000;stroke-width:1;stroke-dasharray:2,2;" x1="20" x2="528.772" y1="676.8203" y2="676.8203"/><text fill="#000000" font-family="sans-serif" font-size="11" font-weight="bold" lengthAdjust="spacing" textLength="125.8232" x="25" y="687.0308">[is hash_ready high]</text><g class="message" data-entity-1="part2" data-entity-2="part4" id="msg14"><polygon fill="#181818" points="467.8413,707.7578,477.8413,711.7578,467.8413,715.7578,471.8413,711.7578" style="stroke:#181818;stroke-width:1;"/><line style="stroke:#181818;stroke-width:1;" x1="178.877" x2="473.8413" y1="711.7578" y2="711.7578"/><text fill="#000000" font-family="sans-serif" font-size="13" lengthAdjust="spacing" textLength="64.9111" x="185.877" y="706.6919">read hash</text></g><g class="message" data-entity-1="part2" data-entity-2="part1" id="msg15"><polygon fill="#181818" points="59.2681,736.8906,49.2681,740.8906,59.2681,744.8906,55.2681,740.8906" style="stroke:#181818;stroke-width:1;"/><line style="stroke:#181818;stroke-width:1;" x1="53.2681" x2="177.877" y1="740.8906" y2="740.8906"/><text fill="#000000" font-family="sans-serif" font-size="13" lengthAdjust="spacing" textLength="66.6123" x="65.2681" y="735.8247">send hash</text></g><?plantuml-src dLBHRiCW37pdAxmFwCCcxMLIzoiH0olGCa31QTM_7vY6f3JJfEKXYkoxyvrZgIXCC2USH9GJMMMZz0JpaABjAXEEmtSQkwgHoMHogGh8Jv62msTLW0-O4WqUukmITltAx23ejH0kX0Yv3L-MW0AaKjqJBmt8da2PsPyP4YA1JQKukA3EOEneW3iimCIYaEfeFA4YRhSP3R8aBeFa1TT1SBLamA4VoVISbegHMKBg6sEa8dkHXElEAlDEU4X5Z_wxOFV9y78ymllhsoRSLgiPaLf3p2_hnoxeBbo7idgJqJNckje_lRfm_PVLLQfKwyxAVs_P5yiQdxV85oEUpYvhi9gGZirib1URlnm3vZli6Ct8tezUH-s9yeboDt_y0000?></g></svg>